<mxfile host="app.diagrams.net" modified="2024-03-06T11:27:15.553Z" agent="Mozilla/5.0 (Windows NT 10.0; Win64; x64) AppleWebKit/537.36 (KHTML, like Gecko) Chrome/122.0.0.0 Safari/537.36" etag="_8KrH_RkmxvhC7LOkRUH" version="24.0.1" type="device">
  <diagram name="Page-1" id="WglRouTsDhR2sTbgRkjW">
    <mxGraphModel dx="1062" dy="547" grid="1" gridSize="10" guides="1" tooltips="1" connect="1" arrows="1" fold="1" page="1" pageScale="1" pageWidth="3300" pageHeight="4681" math="0" shadow="0">
      <root>
        <mxCell id="0" />
        <mxCell id="1" parent="0" />
        <mxCell id="7KRHX-xaLIlEeLk9p_zw-1" value="ChatClient" style="swimlane;fontStyle=1;align=center;verticalAlign=top;childLayout=stackLayout;horizontal=1;startSize=26;horizontalStack=0;resizeParent=1;resizeParentMax=0;resizeLast=0;collapsible=1;marginBottom=0;whiteSpace=wrap;html=1;" parent="1" vertex="1">
          <mxGeometry x="1190" y="200" width="360" height="450" as="geometry" />
        </mxCell>
        <mxCell id="7KRHX-xaLIlEeLk9p_zw-2" value="- m_pConnectionThread: std::thread*&lt;div&gt;- m_hConnection: HSteamNetConnection&lt;/div&gt;&lt;div&gt;- m_pInterface: ISteamNetworkingSockets*&lt;/div&gt;&lt;div&gt;- m_pClientInfo: ClientInfo*&lt;/div&gt;&lt;div&gt;- m_sendRequestQueue: RequestQueue&lt;/div&gt;&lt;div&gt;&lt;span style=&quot;background-color: initial;&quot;&gt;-&amp;nbsp;&lt;/span&gt;&lt;span style=&quot;background-color: initial;&quot;&gt;m_handleRequestQueue: RequestQueue&lt;/span&gt;&lt;/div&gt;&lt;div&gt;&amp;nbsp; &lt;span style=&quot;white-space: pre;&quot;&gt;&#x9;&lt;/span&gt;&lt;span style=&quot;white-space: pre;&quot;&gt;&#x9;&lt;/span&gt;&lt;span style=&quot;white-space: pre;&quot;&gt;&#x9;&lt;/span&gt;&lt;span style=&quot;white-space: pre;&quot;&gt;&#x9;&lt;/span&gt;&lt;span style=&quot;white-space: pre;&quot;&gt;&#x9;&lt;/span&gt;&lt;span style=&quot;white-space: pre;&quot;&gt;&#x9;&lt;/span&gt;...&lt;/div&gt;" style="text;strokeColor=none;fillColor=none;align=left;verticalAlign=top;spacingLeft=4;spacingRight=4;overflow=hidden;rotatable=0;points=[[0,0.5],[1,0.5]];portConstraint=eastwest;whiteSpace=wrap;html=1;" parent="7KRHX-xaLIlEeLk9p_zw-1" vertex="1">
          <mxGeometry y="26" width="360" height="114" as="geometry" />
        </mxCell>
        <mxCell id="7KRHX-xaLIlEeLk9p_zw-3" value="" style="line;strokeWidth=1;fillColor=none;align=left;verticalAlign=middle;spacingTop=-1;spacingLeft=3;spacingRight=3;rotatable=0;labelPosition=right;points=[];portConstraint=eastwest;strokeColor=inherit;" parent="7KRHX-xaLIlEeLk9p_zw-1" vertex="1">
          <mxGeometry y="140" width="360" height="8" as="geometry" />
        </mxCell>
        <mxCell id="7KRHX-xaLIlEeLk9p_zw-4" value="&lt;div&gt;+ ChatClient()&lt;/div&gt;&lt;div&gt;+ ~ChatClient()&lt;/div&gt;&lt;div&gt;&lt;span style=&quot;white-space: normal;&quot;&gt;&lt;span style=&quot;white-space:pre&quot;&gt;&#x9;&lt;span style=&quot;white-space: pre;&quot;&gt;&#x9;&lt;/span&gt;&lt;span style=&quot;white-space: pre;&quot;&gt;&#x9;&lt;/span&gt;&lt;span style=&quot;white-space: pre;&quot;&gt;&#x9;&lt;/span&gt;  &lt;span style=&quot;white-space: pre;&quot;&gt;&#x9;&lt;/span&gt; &lt;/span&gt;«interface»&lt;/span&gt;&lt;/div&gt;&lt;div&gt;&amp;nbsp;&lt;span style=&quot;white-space: pre;&quot;&gt;&#x9;&lt;/span&gt;&lt;span style=&quot;white-space: pre;&quot;&gt;&#x9;&lt;/span&gt;&amp;nbsp; &amp;nbsp; &amp;nbsp; (final&amp;nbsp;&lt;i style=&quot;background-color: initial; border-color: var(--border-color); font-weight: 700; text-align: center;&quot;&gt;IChatSocket&lt;/i&gt;&lt;span style=&quot;background-color: initial; border-color: var(--border-color); text-align: center;&quot;&gt; implementation&lt;/span&gt;&lt;span style=&quot;background-color: initial; border-color: var(--border-color); text-align: center;&quot;&gt;)&lt;/span&gt;&lt;/div&gt;&lt;div&gt;&lt;br&gt;&lt;/div&gt;&lt;div&gt;&lt;span style=&quot;white-space: normal;&quot;&gt;&lt;span style=&quot;white-space:pre&quot;&gt;&#x9;&lt;span style=&quot;white-space: pre;&quot;&gt;&#x9;&lt;/span&gt;&lt;span style=&quot;white-space: pre;&quot;&gt;&#x9;&lt;/span&gt;&lt;span style=&quot;white-space: pre;&quot;&gt;&#x9;&lt;/span&gt;&lt;span style=&quot;white-space: pre;&quot;&gt;&#x9;&lt;/span&gt; &lt;/span&gt;&amp;nbsp;«virtuals»&lt;/span&gt;&lt;/div&gt;&lt;div&gt;&lt;i&gt;+ OnPreRun(SteamNetworkingIPAddr, ChatErrorMsg): EResult&lt;/i&gt;&lt;/div&gt;&lt;div&gt;&lt;i&gt;+ OnRun(SteamNetworkingIPAddr, ChatErrorMsg): EResult&lt;/i&gt;&lt;/div&gt;&lt;div&gt;&lt;i&gt;+ OnPreCloseConnection()&lt;/i&gt;&lt;/div&gt;&lt;div&gt;&lt;i&gt;+ OnCloseConnection()&lt;/i&gt;&lt;/div&gt;&lt;div&gt;&lt;i&gt;+ OnHandleRequest(IRequest*): EResult&lt;/i&gt;&lt;/div&gt;&lt;div&gt;&lt;i&gt;+ OnPreHandleRequest(IRequest*): EResult&lt;/i&gt;&lt;/div&gt;&lt;div&gt;&lt;i&gt;&lt;br&gt;&lt;/i&gt;&lt;/div&gt;&lt;div&gt;&lt;div style=&quot;&quot;&gt;&lt;span style=&quot;font-style: italic; white-space: pre;&quot;&gt;&#x9;&#x9;&#x9;&#x9;&#x9;&lt;/span&gt;&lt;i&gt;&amp;nbsp; &lt;/i&gt;«others»&lt;/div&gt;&lt;div&gt;- SendStringToServer(std::string): EResult&lt;/div&gt;&lt;div&gt;- ConnectionThreadFunction()&lt;/div&gt;&lt;div&gt;- OnSteamNetConnectionStatusChanged()&lt;/div&gt;&lt;div&gt;- &lt;u&gt;SteamNetConnectionStatusChangedCallback&lt;/u&gt;&lt;/div&gt;&lt;div style=&quot;&quot;&gt;&lt;u&gt;&lt;span style=&quot;background-color: initial; white-space: pre;&quot;&gt;&#x9;&lt;/span&gt;&lt;span style=&quot;background-color: initial;&quot;&gt;(SteamNetConnectionStatusChangedCallback_t *&lt;/span&gt;&lt;span style=&quot;background-color: initial;&quot;&gt;)&lt;/span&gt;&lt;/u&gt;&lt;br&gt;&lt;/div&gt;&lt;/div&gt;" style="text;strokeColor=none;fillColor=none;align=left;verticalAlign=top;spacingLeft=4;spacingRight=4;overflow=hidden;rotatable=0;points=[[0,0.5],[1,0.5]];portConstraint=eastwest;whiteSpace=wrap;html=1;" parent="7KRHX-xaLIlEeLk9p_zw-1" vertex="1">
          <mxGeometry y="148" width="360" height="302" as="geometry" />
        </mxCell>
        <mxCell id="7KRHX-xaLIlEeLk9p_zw-6" value="&lt;i&gt;IChatSocket&lt;/i&gt;" style="swimlane;fontStyle=1;align=center;verticalAlign=top;childLayout=stackLayout;horizontal=1;startSize=20;horizontalStack=0;resizeParent=1;resizeParentMax=0;resizeLast=0;collapsible=1;marginBottom=0;whiteSpace=wrap;html=1;swimlaneLine=0;fillColor=default;strokeColor=default;" parent="1" vertex="1">
          <mxGeometry x="1540" y="50" width="220" height="130" as="geometry">
            <mxRectangle x="470" y="30" width="110" height="30" as="alternateBounds" />
          </mxGeometry>
        </mxCell>
        <mxCell id="7KRHX-xaLIlEeLk9p_zw-8" value="" style="line;strokeWidth=1;fillColor=none;align=left;verticalAlign=middle;spacingTop=-1;spacingLeft=3;spacingRight=3;rotatable=0;labelPosition=right;points=[];portConstraint=eastwest;strokeColor=inherit;" parent="7KRHX-xaLIlEeLk9p_zw-6" vertex="1">
          <mxGeometry y="20" width="220" height="8" as="geometry" />
        </mxCell>
        <mxCell id="7KRHX-xaLIlEeLk9p_zw-9" value="&lt;i&gt;+ Run(IPAddr, ChatErrorMsg): EResult&lt;/i&gt;&lt;div&gt;&lt;i&gt;+ IsRunning(): bool&lt;br&gt;&lt;/i&gt;&lt;div&gt;&lt;i&gt;+ CloseConnection()&lt;/i&gt;&lt;/div&gt;&lt;div&gt;&lt;i&gt;+ SendRequest(IRequest*): EResult&lt;/i&gt;&lt;/div&gt;&lt;div&gt;&lt;i style=&quot;border-color: var(--border-color);&quot;&gt;+ HandleRequest(IRequest*): EResult&lt;/i&gt;&lt;br&gt;&lt;/div&gt;&lt;div&gt;&lt;i&gt;+ ~IChatSocket()&lt;/i&gt;&lt;/div&gt;&lt;/div&gt;" style="text;strokeColor=none;fillColor=none;align=left;verticalAlign=top;spacingLeft=4;spacingRight=4;overflow=hidden;rotatable=0;points=[[0,0.5],[1,0.5]];portConstraint=eastwest;whiteSpace=wrap;html=1;" parent="7KRHX-xaLIlEeLk9p_zw-6" vertex="1">
          <mxGeometry y="28" width="220" height="102" as="geometry" />
        </mxCell>
        <mxCell id="7KRHX-xaLIlEeLk9p_zw-10" value="" style="endArrow=block;dashed=1;endFill=0;endSize=12;html=1;rounded=0;exitX=0.5;exitY=0;exitDx=0;exitDy=0;entryX=0.005;entryY=0.426;entryDx=0;entryDy=0;entryPerimeter=0;" parent="1" source="7KRHX-xaLIlEeLk9p_zw-1" target="7KRHX-xaLIlEeLk9p_zw-9" edge="1">
          <mxGeometry width="160" relative="1" as="geometry">
            <mxPoint x="260" y="120" as="sourcePoint" />
            <mxPoint x="420" y="120" as="targetPoint" />
          </mxGeometry>
        </mxCell>
        <mxCell id="7KRHX-xaLIlEeLk9p_zw-16" value="public" style="edgeLabel;html=1;align=center;verticalAlign=middle;resizable=0;points=[];" parent="7KRHX-xaLIlEeLk9p_zw-10" vertex="1" connectable="0">
          <mxGeometry x="0.0426" y="1" relative="1" as="geometry">
            <mxPoint as="offset" />
          </mxGeometry>
        </mxCell>
        <mxCell id="7KRHX-xaLIlEeLk9p_zw-11" value="ChatServer" style="swimlane;fontStyle=1;align=center;verticalAlign=top;childLayout=stackLayout;horizontal=1;startSize=26;horizontalStack=0;resizeParent=1;resizeParentMax=0;resizeLast=0;collapsible=1;marginBottom=0;whiteSpace=wrap;html=1;" parent="1" vertex="1">
          <mxGeometry x="1810" y="200" width="390" height="480" as="geometry" />
        </mxCell>
        <mxCell id="7KRHX-xaLIlEeLk9p_zw-12" value="- m_pConnectionThread: std::thread*&lt;div style=&quot;border-color: var(--border-color);&quot;&gt;- m_hListenSock: HSteamListenSocket&lt;/div&gt;&lt;div style=&quot;border-color: var(--border-color);&quot;&gt;- m_hPollGroup: HSteamPollGroup&lt;br&gt;&lt;/div&gt;&lt;div style=&quot;border-color: var(--border-color);&quot;&gt;- m_pInterface: ISteamNetworkingSockets*&lt;/div&gt;&lt;div style=&quot;border-color: var(--border-color);&quot;&gt;- m_pClientInfo: ClientInfo*&lt;/div&gt;&lt;div style=&quot;border-color: var(--border-color);&quot;&gt;&lt;div&gt;- m_sendRequestQueue: RequestQueue&lt;/div&gt;&lt;div&gt;&lt;span style=&quot;background-color: initial;&quot;&gt;-&amp;nbsp;&lt;/span&gt;&lt;span style=&quot;background-color: initial;&quot;&gt;m_handleRequestQueue: RequestQueue&lt;/span&gt;&lt;/div&gt;&lt;/div&gt;&lt;div style=&quot;border-color: var(--border-color);&quot;&gt;&amp;nbsp;&amp;nbsp;&lt;span style=&quot;border-color: var(--border-color); white-space: pre;&quot;&gt;&#x9;&lt;/span&gt;&lt;span style=&quot;border-color: var(--border-color); white-space: pre;&quot;&gt;&#x9;&lt;/span&gt;&lt;span style=&quot;border-color: var(--border-color); white-space: pre;&quot;&gt;&#x9;&lt;/span&gt;&lt;span style=&quot;border-color: var(--border-color); white-space: pre;&quot;&gt;&#x9;&lt;/span&gt;&lt;span style=&quot;border-color: var(--border-color); white-space: pre;&quot;&gt;&#x9;&lt;/span&gt;&lt;span style=&quot;border-color: var(--border-color); white-space: pre;&quot;&gt;&#x9;&lt;/span&gt;...&lt;/div&gt;" style="text;strokeColor=none;fillColor=none;align=left;verticalAlign=top;spacingLeft=4;spacingRight=4;overflow=hidden;rotatable=0;points=[[0,0.5],[1,0.5]];portConstraint=eastwest;whiteSpace=wrap;html=1;" parent="7KRHX-xaLIlEeLk9p_zw-11" vertex="1">
          <mxGeometry y="26" width="390" height="134" as="geometry" />
        </mxCell>
        <mxCell id="7KRHX-xaLIlEeLk9p_zw-13" value="" style="line;strokeWidth=1;fillColor=none;align=left;verticalAlign=middle;spacingTop=-1;spacingLeft=3;spacingRight=3;rotatable=0;labelPosition=right;points=[];portConstraint=eastwest;strokeColor=inherit;" parent="7KRHX-xaLIlEeLk9p_zw-11" vertex="1">
          <mxGeometry y="160" width="390" height="8" as="geometry" />
        </mxCell>
        <mxCell id="7KRHX-xaLIlEeLk9p_zw-14" value="&lt;div style=&quot;border-color: var(--border-color);&quot;&gt;+ ChatServer()&lt;/div&gt;&lt;div style=&quot;border-color: var(--border-color);&quot;&gt;+ ~ChatServer()&lt;/div&gt;&lt;div style=&quot;border-color: var(--border-color);&quot;&gt;&lt;span style=&quot;border-color: var(--border-color);&quot;&gt;&lt;span style=&quot;border-color: var(--border-color); white-space: pre;&quot;&gt;&#x9;&lt;span style=&quot;border-color: var(--border-color); white-space: pre;&quot;&gt;&#x9;&lt;/span&gt;&lt;span style=&quot;border-color: var(--border-color); white-space: pre;&quot;&gt;&#x9;&lt;/span&gt;&lt;span style=&quot;border-color: var(--border-color); white-space: pre;&quot;&gt;&#x9;&lt;/span&gt;  &lt;span style=&quot;border-color: var(--border-color); white-space: pre;&quot;&gt;&#x9;&lt;span style=&quot;white-space: pre;&quot;&gt;&#x9;&lt;/span&gt;&lt;/span&gt; &lt;/span&gt;«interface»&lt;/span&gt;&lt;/div&gt;&lt;div style=&quot;border-color: var(--border-color);&quot;&gt;&amp;nbsp;&lt;span style=&quot;border-color: var(--border-color); white-space: pre;&quot;&gt;&#x9;   &lt;span style=&quot;white-space: pre;&quot;&gt;&#x9;&lt;/span&gt; &lt;/span&gt;&amp;nbsp; &amp;nbsp; &amp;nbsp; &lt;span style=&quot;white-space: pre;&quot;&gt;&#x9;&lt;/span&gt;&amp;nbsp; &amp;nbsp;&lt;span style=&quot;background-color: initial;&quot;&gt;(f&lt;/span&gt;&lt;span style=&quot;background-color: initial;&quot;&gt;inal&amp;nbsp;&lt;/span&gt;&lt;i style=&quot;background-color: initial; border-color: var(--border-color); font-weight: 700; text-align: center;&quot;&gt;IChatSocket&lt;/i&gt;&lt;span style=&quot;background-color: initial; border-color: var(--border-color); text-align: center;&quot;&gt;&amp;nbsp;implementation&lt;/span&gt;&lt;span style=&quot;background-color: initial; border-color: var(--border-color); text-align: center;&quot;&gt;)&lt;/span&gt;&lt;/div&gt;&lt;div style=&quot;border-color: var(--border-color);&quot;&gt;&lt;span style=&quot;background-color: initial; border-color: var(--border-color); text-align: center;&quot;&gt;&lt;br&gt;&lt;/span&gt;&lt;/div&gt;&lt;div style=&quot;border-color: var(--border-color);&quot;&gt;&lt;span style=&quot;border-color: var(--border-color);&quot;&gt;&lt;span style=&quot;border-color: var(--border-color); white-space: pre;&quot;&gt;&#x9;&lt;span style=&quot;border-color: var(--border-color); white-space: pre;&quot;&gt;&#x9;&lt;/span&gt;&lt;span style=&quot;border-color: var(--border-color); white-space: pre;&quot;&gt;&#x9;&lt;/span&gt;&lt;span style=&quot;border-color: var(--border-color); white-space: pre;&quot;&gt;&#x9;&lt;/span&gt;&lt;span style=&quot;border-color: var(--border-color); white-space: pre;&quot;&gt;&#x9;&lt;span style=&quot;white-space: pre;&quot;&gt;&#x9;&lt;/span&gt;&lt;/span&gt; &lt;/span&gt;&amp;nbsp;«virtuals»&lt;/span&gt;&lt;/div&gt;&lt;div style=&quot;border-color: var(--border-color);&quot;&gt;&lt;i style=&quot;border-color: var(--border-color);&quot;&gt;+ OnPreRun(SteamNetworkingIPAddr, ChatErrorMsg): EResult&lt;/i&gt;&lt;/div&gt;&lt;div style=&quot;border-color: var(--border-color);&quot;&gt;&lt;i style=&quot;border-color: var(--border-color);&quot;&gt;+ OnRun(SteamNetworkingIPAddr, ChatErrorMsg): EResult&lt;/i&gt;&lt;/div&gt;&lt;div style=&quot;border-color: var(--border-color);&quot;&gt;&lt;i style=&quot;border-color: var(--border-color);&quot;&gt;+ OnPreCloseConnection()&lt;/i&gt;&lt;/div&gt;&lt;div style=&quot;border-color: var(--border-color);&quot;&gt;&lt;i style=&quot;border-color: var(--border-color);&quot;&gt;+ OnCloseConnection()&lt;/i&gt;&lt;/div&gt;&lt;div style=&quot;border-color: var(--border-color);&quot;&gt;&lt;i style=&quot;border-color: var(--border-color);&quot;&gt;+ OnHandleRequest(IRequest*): EResult&lt;/i&gt;&lt;/div&gt;&lt;div style=&quot;border-color: var(--border-color);&quot;&gt;&lt;i style=&quot;border-color: var(--border-color);&quot;&gt;+ OnPreHandleRequest(IRequest*): EResult&lt;/i&gt;&lt;/div&gt;&lt;div style=&quot;border-color: var(--border-color);&quot;&gt;&lt;i style=&quot;border-color: var(--border-color);&quot;&gt;&lt;br&gt;&lt;/i&gt;&lt;/div&gt;&lt;div style=&quot;border-color: var(--border-color);&quot;&gt;&lt;i style=&quot;border-color: var(--border-color);&quot;&gt;&lt;div style=&quot;border-color: var(--border-color); font-style: normal;&quot;&gt;&lt;span style=&quot;border-color: var(--border-color); font-style: italic; white-space: pre;&quot;&gt;&#x9;&#x9;&#x9;&#x9;&#x9;&lt;/span&gt;&lt;i style=&quot;border-color: var(--border-color);&quot;&gt;&amp;nbsp;&lt;span style=&quot;white-space: pre;&quot;&gt;&#x9;&lt;/span&gt;&amp;nbsp;&lt;/i&gt;«others»&lt;/div&gt;&lt;div style=&quot;border-color: var(--border-color); font-style: normal;&quot;&gt;-&amp;nbsp;&lt;i style=&quot;background-color: initial; border-color: var(--border-color);&quot;&gt;&lt;span style=&quot;font-style: normal;&quot;&gt;SendStringToClient(HSteamNetConnection, std::string): EResult&lt;/span&gt;&lt;/i&gt;&lt;/div&gt;&lt;div style=&quot;border-color: var(--border-color); font-style: normal;&quot;&gt;&lt;i style=&quot;background-color: initial; border-color: var(--border-color);&quot;&gt;&lt;span style=&quot;font-style: normal;&quot;&gt;-&amp;nbsp;&lt;/span&gt;&lt;i style=&quot;background-color: initial; border-color: var(--border-color);&quot;&gt;&lt;span style=&quot;font-style: normal;&quot;&gt;SendStringToAllClients(std::string,&amp;nbsp;&lt;/span&gt;&lt;/i&gt;&lt;/i&gt;&lt;i style=&quot;background-color: initial; border-color: var(--border-color);&quot;&gt;&lt;i style=&quot;background-color: initial; border-color: var(--border-color);&quot;&gt;&lt;span style=&quot;font-style: normal;&quot;&gt;HSteamNetConnection&lt;/span&gt;&lt;/i&gt;&lt;/i&gt;&lt;i style=&quot;background-color: initial; border-color: var(--border-color);&quot;&gt;&lt;i style=&quot;background-color: initial; border-color: var(--border-color);&quot;&gt;&lt;span style=&quot;font-style: normal;&quot;&gt;): EResult&lt;/span&gt;&lt;/i&gt;&lt;/i&gt;&lt;/div&gt;&lt;div style=&quot;border-color: var(--border-color); font-style: normal;&quot;&gt;- ConnectionThreadFunction()&lt;/div&gt;&lt;div style=&quot;border-color: var(--border-color); font-style: normal;&quot;&gt;- OnSteamNetConnectionStatusChanged()&lt;/div&gt;&lt;div style=&quot;border-color: var(--border-color); font-style: normal;&quot;&gt;-&amp;nbsp;&lt;u style=&quot;border-color: var(--border-color);&quot;&gt;SteamNetConnectionStatusChangedCallback&lt;/u&gt;&lt;/div&gt;&lt;div style=&quot;border-color: var(--border-color); font-style: normal;&quot;&gt;&lt;u style=&quot;border-color: var(--border-color);&quot;&gt;&lt;span style=&quot;border-color: var(--border-color); background-color: initial; white-space: pre;&quot;&gt;&#x9;&lt;/span&gt;&lt;span style=&quot;border-color: var(--border-color); background-color: initial;&quot;&gt;(SteamNetConnectionStatusChangedCallback_t *&lt;/span&gt;&lt;span style=&quot;border-color: var(--border-color); background-color: initial;&quot;&gt;)&lt;/span&gt;&lt;/u&gt;&lt;/div&gt;&lt;/i&gt;&lt;/div&gt;" style="text;strokeColor=none;fillColor=none;align=left;verticalAlign=top;spacingLeft=4;spacingRight=4;overflow=hidden;rotatable=0;points=[[0,0.5],[1,0.5]];portConstraint=eastwest;whiteSpace=wrap;html=1;" parent="7KRHX-xaLIlEeLk9p_zw-11" vertex="1">
          <mxGeometry y="168" width="390" height="312" as="geometry" />
        </mxCell>
        <mxCell id="7KRHX-xaLIlEeLk9p_zw-15" value="" style="endArrow=block;dashed=1;endFill=0;endSize=12;html=1;rounded=0;exitX=0.5;exitY=0;exitDx=0;exitDy=0;entryX=1.005;entryY=0.452;entryDx=0;entryDy=0;entryPerimeter=0;" parent="1" source="7KRHX-xaLIlEeLk9p_zw-11" target="7KRHX-xaLIlEeLk9p_zw-9" edge="1">
          <mxGeometry width="160" relative="1" as="geometry">
            <mxPoint x="680" y="146" as="sourcePoint" />
            <mxPoint x="820" y="90" as="targetPoint" />
          </mxGeometry>
        </mxCell>
        <mxCell id="7KRHX-xaLIlEeLk9p_zw-17" value="public" style="edgeLabel;html=1;align=center;verticalAlign=middle;resizable=0;points=[];" parent="7KRHX-xaLIlEeLk9p_zw-15" vertex="1" connectable="0">
          <mxGeometry x="0.0285" y="-2" relative="1" as="geometry">
            <mxPoint as="offset" />
          </mxGeometry>
        </mxCell>
        <mxCell id="CmxNaf8SsPluwDJPSRON-1" value="SendRequestQueue = std" style="html=1;whiteSpace=wrap;" vertex="1" parent="1">
          <mxGeometry x="760" y="330" width="280" height="50" as="geometry" />
        </mxCell>
      </root>
    </mxGraphModel>
  </diagram>
</mxfile>
